<svg width="720" height="720" viewBox="0 0 720 720" fill="none" xmlns="http://www.w3.org/2000/svg">
<rect x="1" y="1" width="718" height="718" fill="#0C0B0B"/>
<path d="M135.963 415.7C125.263 415.7 115.663 413.8 107.163 410C98.7633 406.1 92.1133 400.7 87.2133 393.8C82.3133 386.8 79.8633 378.7 79.8633 369.5C79.8633 360.4 82.2133 352.45 86.9133 345.65C91.7133 338.85 98.2133 333.55 106.413 329.75C114.613 325.95 123.813 324.05 134.013 324.05C144.713 324.05 153.813 326.25 161.313 330.65C168.813 335.05 174.563 341.3 178.563 349.4C182.563 357.4 184.563 366.9 184.563 377.9H111.063V360.35H162.363L152.163 366.05C151.663 362.15 150.663 358.9 149.163 356.3C147.663 353.7 145.663 351.75 143.163 350.45C140.763 349.05 137.863 348.35 134.463 348.35C130.663 348.35 127.413 349.2 124.713 350.9C122.113 352.6 120.113 354.95 118.713 357.95C117.413 360.85 116.763 364.15 116.763 367.85C116.763 372.65 117.813 376.7 119.913 380C122.113 383.2 125.413 385.65 129.813 387.35C134.213 389.05 139.763 389.9 146.463 389.9C152.963 389.9 159.263 389.1 165.363 387.5C171.563 385.8 177.263 383.4 182.463 380.3V401.9C176.063 406.4 168.763 409.85 160.563 412.25C152.463 414.55 144.263 415.7 135.963 415.7ZM195.813 297.5H233.913V413H195.813V297.5ZM248.255 324.95L267.305 328.85L286.355 324.95V413H248.255V324.95ZM267.305 320.45C260.905 320.45 255.755 318.9 251.855 315.8C247.955 312.7 246.005 308.45 246.005 303.05C246.005 297.65 247.955 293.4 251.855 290.3C255.755 287.2 260.905 285.65 267.305 285.65C273.805 285.65 278.955 287.2 282.755 290.3C286.655 293.4 288.605 297.65 288.605 303.05C288.605 308.45 286.655 312.7 282.755 315.8C278.955 318.9 273.805 320.45 267.305 320.45ZM300.696 324.95L319.746 328.85L338.796 324.95V437.75H300.696V324.95ZM319.746 320.45C313.346 320.45 308.196 318.9 304.296 315.8C300.396 312.7 298.446 308.45 298.446 303.05C298.446 297.65 300.396 293.4 304.296 290.3C308.196 287.2 313.346 285.65 319.746 285.65C326.246 285.65 331.396 287.2 335.196 290.3C339.096 293.4 341.046 297.65 341.046 303.05C341.046 308.45 339.096 312.7 335.196 315.8C331.396 318.9 326.246 320.45 319.746 320.45ZM429.188 413L424.838 382.55L429.188 369.95L424.838 357.5L429.188 326.75H468.788L462.788 369.8L468.788 413H429.188ZM437.138 369.95C436.138 379.15 433.638 387.2 429.638 394.1C425.738 400.9 420.588 406.2 414.188 410C407.888 413.8 400.638 415.7 392.438 415.7C384.038 415.7 376.638 413.8 370.238 410C363.938 406.2 358.988 400.85 355.388 393.95C351.888 387.05 350.138 379.05 350.138 369.95C350.138 360.75 351.888 352.7 355.388 345.8C358.988 338.9 363.938 333.55 370.238 329.75C376.638 325.95 384.038 324.05 392.438 324.05C400.638 324.05 407.888 325.95 414.188 329.75C420.588 333.45 425.788 338.75 429.788 345.65C433.788 352.45 436.238 360.55 437.138 369.95ZM388.538 369.95C388.538 373.25 389.188 376.2 390.488 378.8C391.888 381.3 393.788 383.3 396.188 384.8C398.688 386.3 401.538 387.05 404.738 387.05C408.038 387.05 411.238 386.3 414.338 384.8C417.438 383.3 420.138 381.3 422.438 378.8C424.838 376.2 426.488 373.25 427.388 369.95C426.488 366.65 424.838 363.7 422.438 361.1C420.138 358.5 417.438 356.45 414.338 354.95C411.238 353.45 408.038 352.7 404.738 352.7C401.538 352.7 398.688 353.45 396.188 354.95C393.788 356.45 391.888 358.5 390.488 361.1C389.188 363.7 388.538 366.65 388.538 369.95ZM480.872 297.5H518.972V413H480.872V297.5ZM548.822 324.05C557.222 324.05 564.372 325.75 570.272 329.15C576.172 332.45 580.672 337.15 583.772 343.25C586.972 349.25 588.572 356.3 588.572 364.4V413H550.472V369.8C550.472 365 549.122 361.3 546.422 358.7C543.822 356.1 540.122 354.8 535.322 354.8C531.922 354.8 528.972 355.5 526.472 356.9C524.072 358.2 522.222 360.15 520.922 362.75C519.622 365.25 518.972 368.3 518.972 371.9L507.722 366.2C509.122 356.8 511.822 349 515.822 342.8C519.822 336.5 524.672 331.8 530.372 328.7C536.072 325.6 542.222 324.05 548.822 324.05ZM619.268 414.8C615.468 414.8 611.968 413.9 608.768 412.1C605.668 410.3 603.218 407.85 601.418 404.75C599.618 401.55 598.718 398.05 598.718 394.25C598.718 390.35 599.618 386.85 601.418 383.75C603.218 380.65 605.668 378.2 608.768 376.4C611.968 374.6 615.468 373.7 619.268 373.7C623.168 373.7 626.668 374.6 629.768 376.4C632.868 378.2 635.318 380.65 637.118 383.75C638.918 386.85 639.818 390.35 639.818 394.25C639.818 398.05 638.918 401.55 637.118 404.75C635.318 407.85 632.868 410.3 629.768 412.1C626.668 413.9 623.168 414.8 619.268 414.8Z" fill="#00ADB5"/>
<rect x="598.5" y="373.5" width="41" height="41" rx="20.5" fill="#0C0B0B" stroke="#00ADB5"/>
<rect x="615.5" y="390.5" width="7.4" height="7.4" rx="3.7" fill="#0C0B0B" stroke="#00ADB5"/>
<rect x="1" y="1" width="718" height="718" stroke="#00ADB5" stroke-width="2"/>
</svg>
